Coordinates
version=1
nRows=32
nColumns=12
inDegrees=yes

Units are S.I. units (second, meters, Newtons, ...)
Angles are in degrees

endheader
time	SC_y	SC_z	SC_x	AC_y	AC_z	AC_x	GH_y	GH_z	GH_yy	EL_x	PS_y
       0.0              -43.68          20.22          8.261          45.23         -7.736         -17.72          45.35          65.15          68.72          91.63          26.23
   0.02915              -43.67          20.22          8.266          45.23         -7.734         -17.72          45.35          65.14          68.71          91.62          26.23
    0.0583              -43.67          20.22          8.272          45.24         -7.732         -17.72          45.36          65.13           68.7          91.61          26.24
   0.08745              -43.67          20.22          8.278          45.24          -7.73         -17.72          45.36          65.12           68.7           91.6          26.25
    0.1166              -43.67          20.23          8.285          45.24         -7.728         -17.72          45.37          65.11          68.69           91.6          26.25
    0.1457              -43.66          20.23          8.292          45.24         -7.726         -17.72          45.38           65.1          68.68          91.58          26.26
    0.1749              -43.66          20.23          8.299          45.25         -7.724         -17.72          45.38          65.09          68.67          91.57          26.27
     0.204              -43.66          20.23          8.307          45.25         -7.721         -17.72          45.39          65.08          68.66          91.56          26.28
    0.2332              -43.65          20.23          8.315          45.25         -7.718         -17.72           45.4          65.06          68.65          91.55          26.29
    0.2623              -43.65          20.23          8.324          45.26         -7.715         -17.72          45.41          65.05          68.64          91.54           26.3
    0.2915              -43.65          20.23          8.334          45.26         -7.712         -17.72          45.42          65.03          68.63          91.52          26.31
    0.3206              -43.64          20.24          8.345          45.26         -7.709         -17.72          45.43          65.02          68.62          91.51          26.32
    0.3498              -43.64          20.24          8.356          45.27         -7.705         -17.72          45.44           65.0           68.6          91.49          26.33
    0.3789              -43.64          20.24          8.368          45.27         -7.702         -17.72          45.45          64.98          68.59          91.47          26.35
    0.4081              -43.63          20.24          8.382          45.28         -7.697         -17.72          45.46          64.96          68.57          91.45          26.36
    0.4372              -43.62          20.25          8.396          45.28         -7.693         -17.72          45.48          64.93          68.55          91.43          26.38
    0.4664              -43.62          20.25          8.412          45.29         -7.688         -17.72          45.49          64.91          68.54          91.41           26.4
    0.4955              -43.61          20.25          8.429          45.29         -7.682         -17.72          45.51          64.88          68.52          91.38          26.42
    0.5247              -43.61          20.25          8.447           45.3         -7.677         -17.72          45.53          64.85          68.49          91.36          26.44
    0.5538               -43.6          20.26          8.468          45.31          -7.67         -17.72          45.55          64.81          68.47          91.33          26.46
     0.583              -43.59          20.26           8.49          45.32         -7.663         -17.72          45.57          64.78          68.44          91.29          26.49
    0.6121              -43.58          20.27          8.515          45.33         -7.655         -17.71          45.59          64.74          68.41          91.26          26.51
    0.6413              -43.57          20.27          8.542          45.34         -7.647         -17.71          45.62          64.69          68.38          91.22          26.54
    0.6704              -43.56          20.28          8.572          45.35         -7.637         -17.71          45.65          64.64          68.34          91.17          26.58
    0.6996              -43.55          20.28          8.605          45.36         -7.626         -17.71          45.68          64.59           68.3          91.12          26.61
    0.7287              -43.53          20.29          8.643          45.37         -7.615         -17.71          45.71          64.53          68.26          91.07          26.66
    0.7579              -43.52           20.3          8.684          45.39         -7.601         -17.71          45.76          64.46          68.21          91.01           26.7
     0.787               -43.5           20.3          8.732          45.41         -7.586         -17.71           45.8          64.38          68.15          90.94          26.76
    0.8162              -43.48          20.31          8.785          45.43          -7.57         -17.71          45.85           64.3          68.09          90.86          26.82
    0.8453              -43.46          20.32          8.845          45.45          -7.55          -17.7          45.91           64.2          68.01          90.77          26.88
    0.8745              -43.43          20.34          8.914          45.47         -7.529          -17.7          45.98          64.08          67.93          90.67          26.96
    0.9036               -43.4          20.35          8.993           45.5         -7.504          -17.7          46.05          63.96          67.84          90.56          27.05
